PathFileType	4	(X/Y/Z)	C:\Users\WrightLab\Desktop\Jo\P1.2Trial19.trc
DataRate	CameraRate	NumFrames	NumMarkers	Units	OrigDataRate	OrigDataStartFrame	OrigNumFrames
100.00	100.00	       11	19	mm	100.00	394	       629
Frame#	Time	Headset_Front			Headset_Back			Headset_Left			Headset_Right			Left_Shoulder			Right_Shoulder			Sternum			C7			Left Elbow			Right Elbow			Left Wrist			Right Wrist			Left ASIS			Right ASIS			S2			Left Knee			Right Knee			Left Ankle			Right Ankle			
		X1	Y1	Z1	X2	Y2	Z2	X3	Y3	Z3	X4	Y4	Z4	X5	Y5	Z5	X6	Y6	Z6	X7	Y7	Z7	X8	Y8	Z8	X9	Y9	Z9	X10	Y10	Z10	X11	Y11	Z11	X12	Y12	Z12	X13	Y13	Z13	X14	Y14	Z14	X15	Y15	Z15	X16	Y16	Z16	X17	Y17	Z17	X18	Y18	Z18	X19	Y19	Z19	

394	3.930	62.58759	1380.02820	1831.49023	92.38991	1565.40869	1582.10120	192.10109	1487.70801	1706.56311				323.33914	1283.04724	1585.38782	-103.18143	1282.06860	1616.22766	119.41386	1226.95630	1726.45178	101.85912	1344.08020	1492.39624	381.62088	998.57233	1525.24890	-175.99998	1030.26782	1591.69177	456.54120	791.89612	1619.48181	-190.34158	785.89923	1720.57385	257.17770	916.11975	1730.77478	-23.94129	899.66333	1720.07642	129.86055	937.60065	1441.10510	282.50186	562.36530	1863.59839	2.96485	452.81607	1651.87964	366.06912	203.81319	1744.72876	124.18612	127.60871	1594.88928	
395	3.940	59.17929	1379.54761	1839.29980	92.85522	1563.84167	1589.62012	190.16135	1486.81506	1716.43604	-33.54060	1429.93921	1731.93945	323.33887	1282.72180	1597.62109	-103.10753	1281.00903	1620.34290	116.89533	1224.88232	1734.14832	103.33483	1342.91052	1502.42505	382.47098	998.39319	1537.23645	-175.80315	1029.68506	1596.46497	456.91476	791.78442	1630.38562	-189.16895	785.24323	1728.46643	254.83315	915.53619	1741.67761	-26.47600	898.85400	1725.61902	133.00734	937.27747	1448.54138	274.01254	561.27527	1874.77429	3.60876	451.93732	1653.10522	363.35434	200.12468	1775.92590	124.74922	126.78334	1594.81384	
396	3.950	55.40672	1379.02917	1847.72559	92.97150	1563.66760	1599.37244	188.87766	1486.41394	1726.17285	-35.60753	1430.01794	1739.91296	323.57785	1282.58215	1610.37134	-104.05687	1281.15308	1626.83679	114.74656	1224.09058	1744.10339	104.42702	1342.22241	1511.39648	383.20740	997.68976	1548.88818	-175.27258	1028.45557	1604.14856	456.95590	790.53967	1640.58142	-188.14342	784.87421	1735.34546	252.33398	914.96326	1753.17346	-28.77790	897.21545	1729.75366	136.17459	937.57037	1457.25781	265.45737	558.87445	1885.16479	4.24162	450.71677	1655.59973	361.74869	197.46715	1808.92334	124.93876	125.88378	1596.22742	
397	3.960	52.45926	1378.68506	1856.33972	92.90491	1562.80847	1607.21082	187.52797	1485.29211	1735.47559	-37.59087	1430.07849	1747.88501	322.51648	1280.99939	1622.62048	-104.32446	1279.84583	1632.70984	112.15556	1222.54736	1752.35339	105.59443	1341.55273	1520.25452	383.89020	996.80994	1561.09473	-174.87181	1027.79529	1608.69238	457.16299	789.00525	1650.90491	-187.05182	784.02899	1742.48645	249.47047	913.86877	1763.22717	-31.32469	896.46429	1735.56348	139.92126	937.11530	1465.42761	257.37259	557.64520	1895.33276	6.29609	448.34277	1654.91675	357.80737	194.70612	1839.74609	125.31465	124.33426	1595.90027	
398	3.970	49.03706	1378.72729	1865.07043	93.40823	1561.93481	1617.47278				-39.80890	1428.77002	1754.24939	322.39285	1280.17126	1635.35010	-105.47237	1279.20630	1638.92786	110.11254	1221.87097	1761.85364	106.76147	1340.98242	1529.82446	384.69522	997.11755	1572.58337	-174.48399	1026.41821	1615.98987	456.75146	788.90619	1661.52612	-186.14961	783.53339	1750.33838	247.05717	912.74768	1774.53699	-33.62553	895.09027	1741.53040	142.66362	936.74127	1474.43665	248.44583	555.04218	1905.05823	4.14636	448.76279	1662.96887	353.65900	193.36903	1871.91687	125.34185	123.91482	1596.96960	
399	3.980	45.07301	1377.32043	1873.22668	93.25185	1559.93591	1625.72156				-41.53403	1428.64197	1762.81873	321.54587	1278.93262	1647.21558	-105.41878	1277.92151	1644.76184	107.46554	1220.26233	1770.63489	107.92506	1339.97278	1538.30872	385.53073	996.48260	1585.73438	-174.09901	1025.58716	1620.72449	456.61914	788.37982	1673.30164	-185.72942	783.00555	1757.02258	244.58032	911.42072	1784.26733	-36.42942	894.31396	1747.74072	146.19522	936.00421	1483.97705	240.01073	551.40540	1914.00525	4.34724	448.62390	1668.33984	347.04294	194.78510	1904.06201	124.70635	124.52833	1600.47327	
400	3.990	41.25634	1376.45642	1881.34290	94.11452	1559.13049	1634.22693	182.41991	1481.82971	1765.70337	-43.71541	1427.88171	1770.10400	321.07266	1277.86621	1658.54175	-106.25653	1276.79333	1650.34326	104.71411	1219.08728	1780.05334	109.22610	1338.81885	1549.07544	385.68527	995.71722	1596.42993	-173.82523	1024.15002	1627.21191	456.86978	787.46033	1685.59912	-185.87788	782.19598	1764.28235	241.68222	910.24554	1795.22961	-38.39407	892.98187	1754.08130	149.22169	935.25751	1492.85303	232.32518	546.84808	1921.45325	5.09198	446.80109	1670.67834	340.00046	196.49258	1935.42041	123.32244	125.59332	1604.69922	
401	4.000	37.94870	1376.09265	1890.20593	93.40550	1558.09753	1643.91956	179.97650	1480.19385	1775.52051	-45.98407	1426.73950	1776.71033	319.99878	1277.08484	1670.94934	-106.49699	1275.03149	1655.96643	102.31149	1217.32141	1789.16125	110.47694	1337.56848	1557.20154	387.66391	995.07422	1610.99146	-173.65010	1022.87091	1632.78345	457.38101	786.42914	1697.20007	-185.79999	781.07410	1771.36975	238.62711	909.47681	1806.77869	-40.73607	892.00854	1760.65125	151.80594	934.39807	1502.58093	224.51126	542.26965	1928.86499	4.33792	447.21191	1677.32324	332.22015	200.50420	1964.78625				
402	4.010	34.38596	1375.25696	1899.34949	93.48099	1556.53284	1652.35095	178.34309	1478.72888	1786.23181	-47.29135	1426.04370	1784.75146	319.63275	1275.63965	1684.06360	-106.58414	1273.68115	1661.22717	99.52098	1215.87390	1797.30151	111.50558	1336.19128	1565.79016	387.41531	993.80353	1622.76831	-173.44246	1021.56714	1638.13806	456.70609	785.92053	1709.61475	-186.36604	780.28217	1777.09509	235.14462	907.88843	1816.98779	-42.57891	889.77008	1767.13879	154.72119	934.06805	1512.77124	217.63390	537.33289	1935.22876	3.21931	445.04727	1681.40942	322.99271	204.86177	1990.72449				
403	4.020	30.58219	1374.01990	1906.92578	94.12009	1554.75513	1660.95679	176.44125	1477.58044	1796.72400	-49.59107	1424.58911	1791.75000	318.50287	1274.03796	1696.64709	-107.93191	1273.02405	1668.87732	96.47995	1215.02258	1808.93311	112.33975	1334.69580	1576.88135	388.58472	992.67169	1636.04077	-173.07692	1019.71344	1644.58142	456.38849	784.44122	1721.23499	-186.84100	778.97443	1784.35193	232.42586	906.26923	1828.53394	-44.48888	888.12805	1772.76453	157.21248	932.57819	1522.47070	210.87016	533.10187	1942.83887	3.44738	443.39575	1685.02832	312.81339	209.05318	2014.10828				
404	4.030	26.54868	1372.30688	1915.02332	93.66875	1553.27393	1670.95886	174.34679	1475.45374	1805.63391	-51.64569	1423.74829	1798.62646	317.95261	1272.47998	1709.54700	-107.56696	1271.37207	1674.22437	93.81088	1213.11292	1816.36145	113.31903	1333.35071	1585.43127	390.12323	993.11224	1645.95959	-172.91634	1018.43652	1649.15918	456.39478	783.16022	1735.33630	-187.31047	777.65381	1790.36023	228.39601	904.61322	1839.26221	-46.51331	886.78735	1779.71973	159.69366	931.37616	1533.22083	205.45300	529.65161	1949.79224	1.39110	441.99133	1689.21753	302.03833	215.56847	2036.83484				
